<?xml version="1.0" encoding="UTF-8" standalone="no"?>
<!DOCTYPE svg PUBLIC "-//W3C//DTD SVG 1.1//EN"
 "http://www.w3.org/Graphics/SVG/1.1/DTD/svg11.dtd">
<!-- Generated by graphviz version 2.50.0 (20211204.2007)
 -->
<!-- Title: G Pages: 1 -->
<svg width="951pt" height="398pt"
 viewBox="0.00 0.00 950.99 397.95" xmlns="http://www.w3.org/2000/svg" xmlns:xlink="http://www.w3.org/1999/xlink">
<g id="graph0" class="graph" transform="scale(1 1) rotate(0) translate(4 393.95)">
<title>G</title><style>.edge>path:hover{stroke-width:8}</style>
<polygon fill="white" stroke="transparent" points="-4,4 -4,-393.95 946.99,-393.95 946.99,4 -4,4"/>
<!-- doc -->
<g id="node1" class="node">
<title>doc</title><style>.edge>path:hover{stroke-width:8}</style>
<ellipse fill="#b65353" stroke="black" cx="27" cy="-165.21" rx="27" ry="18"/>
<text text-anchor="middle" x="27" y="-162.71" font-family="Helvetica,sans-Serif" font-size="10.00" fill="#ffffff">doc</text>
</g>
<!-- src_framework -->
<g id="node10" class="node">
<title>src_framework</title><style>.edge>path:hover{stroke-width:8}</style>
<ellipse fill="#5f2e6b" stroke="black" cx="651" cy="-18" rx="46.51" ry="18"/>
<text text-anchor="middle" x="651" y="-15.5" font-family="Helvetica,sans-Serif" font-size="10.00" fill="#ffffff">src.framework</text>
</g>
<!-- doc&#45;&gt;src_framework -->
<g id="edge1" class="edge">
<title>doc&#45;&gt;src_framework</title><style>.edge>path:hover{stroke-width:8}</style>
<path fill="none" stroke="black" d="M45.89,-152.13C51.26,-149.11 57.22,-146.13 63,-144 176.91,-101.98 227.16,-153.93 331,-91"/>
<path fill="none" stroke="black" d="M331,-89C413.41,-39.06 526.91,-24.56 594.24,-20.47"/>
<polygon fill="#b65353" stroke="black" points="594.85,-23.94 604.64,-19.9 594.47,-16.95 594.85,-23.94"/>
</g>
<!-- doc_check_config_framework -->
<g id="node2" class="node">
<title>doc_check_config_framework</title><style>.edge>path:hover{stroke-width:8}</style>
<ellipse fill="#b65353" stroke="black" cx="160" cy="-165.21" rx="88.28" ry="21.43"/>
<text text-anchor="middle" x="160" y="-168.21" font-family="Helvetica,sans-Serif" font-size="10.00" fill="#ffffff">doc.</text>
<text text-anchor="middle" x="160" y="-157.21" font-family="Helvetica,sans-Serif" font-size="10.00" fill="#ffffff">check_config_framework</text>
</g>
<!-- doc_check_config_framework&#45;&gt;src_framework -->
<g id="edge2" class="edge">
<title>doc_check_config_framework&#45;&gt;src_framework</title><style>.edge>path:hover{stroke-width:8}</style>
<path fill="none" stroke="black" d="M208.94,-147.45C244.14,-134.41 292.06,-114.6 331,-91"/>
</g>
<!-- pandas -->
<g id="node3" class="node">
<title>pandas</title><style>.edge>path:hover{stroke-width:8}</style>
<ellipse fill="#c8f906" stroke="black" cx="756" cy="-353.18" rx="28.01" ry="18"/>
<text text-anchor="middle" x="756" y="-350.68" font-family="Helvetica,sans-Serif" font-size="10.00" fill="#000000">pandas</text>
</g>
<!-- pandas&#45;&gt;src_framework -->
<g id="edge3" class="edge">
<title>pandas&#45;&gt;src_framework</title><style>.edge>path:hover{stroke-width:8}</style>
<path fill="none" stroke="black" d="M509,-250.42C497.47,-211.22 471.67,-215.54 443,-186.43 434.35,-177.64 431.62,-175.91 424,-166.21"/>
<path fill="none" stroke="black" d="M424,-164.21C415.38,-153.25 410.87,-152.74 400,-144 369.87,-119.76 297.93,-111.04 331,-91"/>
<path fill="none" stroke="black" d="M727.69,-352.67C668.46,-351.9 534.83,-340.27 509,-252.42"/>
</g>
<!-- src_hdt_interface -->
<g id="node11" class="node">
<title>src_hdt_interface</title><style>.edge>path:hover{stroke-width:8}</style>
<ellipse fill="#a731c4" stroke="black" cx="724" cy="-165.21" rx="51.74" ry="21.43"/>
<text text-anchor="middle" x="724" y="-168.21" font-family="Helvetica,sans-Serif" font-size="10.00" fill="#ffffff">src.</text>
<text text-anchor="middle" x="724" y="-157.21" font-family="Helvetica,sans-Serif" font-size="10.00" fill="#ffffff">hdt_interface</text>
</g>
<!-- pandas&#45;&gt;src_hdt_interface -->
<g id="edge4" class="edge">
<title>pandas&#45;&gt;src_hdt_interface</title><style>.edge>path:hover{stroke-width:8}</style>
<path fill="none" stroke="black" d="M509,-250.42C506.48,-241.86 611.54,-204.45 675.7,-182.48"/>
<polygon fill="#c8f906" stroke="black" points="676.9,-185.77 685.24,-179.22 674.64,-179.14 676.9,-185.77"/>
</g>
<!-- src_metrics -->
<g id="node12" class="node">
<title>src_metrics</title><style>.edge>path:hover{stroke-width:8}</style>
<ellipse fill="#9849ac" stroke="black" cx="870" cy="-165.21" rx="38.03" ry="18"/>
<text text-anchor="middle" x="870" y="-162.71" font-family="Helvetica,sans-Serif" font-size="10.00" fill="#ffffff">src.metrics</text>
</g>
<!-- pandas&#45;&gt;src_metrics -->
<g id="edge5" class="edge">
<title>pandas&#45;&gt;src_metrics</title><style>.edge>path:hover{stroke-width:8}</style>
<path fill="none" stroke="black" d="M765.92,-336C785.83,-303.52 830.79,-230.18 854.57,-191.38"/>
<polygon fill="#c8f906" stroke="black" points="857.62,-193.11 859.86,-182.75 851.65,-189.45 857.62,-193.11"/>
</g>
<!-- src_ordering -->
<g id="node13" class="node">
<title>src_ordering</title><style>.edge>path:hover{stroke-width:8}</style>
<ellipse fill="#8b439d" stroke="black" cx="792" cy="-90" rx="40.06" ry="18"/>
<text text-anchor="middle" x="792" y="-87.5" font-family="Helvetica,sans-Serif" font-size="10.00" fill="#ffffff">src.ordering</text>
</g>
<!-- pandas&#45;&gt;src_ordering -->
<g id="edge6" class="edge">
<title>pandas&#45;&gt;src_ordering</title><style>.edge>path:hover{stroke-width:8}</style>
<path fill="none" stroke="black" d="M804,-164.21C800.35,-149.04 797.47,-131.84 795.44,-117.92"/>
<polygon fill="#c8f906" stroke="black" points="798.91,-117.43 794.06,-108.01 791.98,-118.39 798.91,-117.43"/>
<path fill="none" stroke="black" d="M761.33,-335.27C774.65,-292.62 808.01,-182.87 804,-166.21"/>
</g>
<!-- src_plotter -->
<g id="node14" class="node">
<title>src_plotter</title><style>.edge>path:hover{stroke-width:8}</style>
<ellipse fill="#9849ac" stroke="black" cx="619" cy="-165.21" rx="35.14" ry="18"/>
<text text-anchor="middle" x="619" y="-162.71" font-family="Helvetica,sans-Serif" font-size="10.00" fill="#ffffff">src.plotter</text>
</g>
<!-- pandas&#45;&gt;src_plotter -->
<g id="edge7" class="edge">
<title>pandas&#45;&gt;src_plotter</title><style>.edge>path:hover{stroke-width:8}</style>
<path fill="none" stroke="black" d="M509,-250.42C503.36,-231.25 551.38,-201.49 585.78,-182.97"/>
<polygon fill="#c8f906" stroke="black" points="587.43,-186.05 594.63,-178.28 584.15,-179.87 587.43,-186.05"/>
</g>
<!-- src_ranker -->
<g id="node15" class="node">
<title>src_ranker</title><style>.edge>path:hover{stroke-width:8}</style>
<ellipse fill="#9e4cb3" stroke="black" cx="424" cy="-90" rx="35.14" ry="18"/>
<text text-anchor="middle" x="424" y="-87.5" font-family="Helvetica,sans-Serif" font-size="10.00" fill="#ffffff">src.ranker</text>
</g>
<!-- pandas&#45;&gt;src_ranker -->
<g id="edge8" class="edge">
<title>pandas&#45;&gt;src_ranker</title><style>.edge>path:hover{stroke-width:8}</style>
<path fill="none" stroke="black" d="M424,-164.21C413.92,-151.38 413.95,-133.01 416.48,-117.88"/>
<polygon fill="#c8f906" stroke="black" points="419.92,-118.54 418.54,-108.03 413.07,-117.1 419.92,-118.54"/>
</g>
<!-- src_triply_interface -->
<g id="node16" class="node">
<title>src_triply_interface</title><style>.edge>path:hover{stroke-width:8}</style>
<ellipse fill="#a640c0" stroke="black" cx="509" cy="-165.21" rx="56.64" ry="21.43"/>
<text text-anchor="middle" x="509" y="-168.21" font-family="Helvetica,sans-Serif" font-size="10.00" fill="#ffffff">src.</text>
<text text-anchor="middle" x="509" y="-157.21" font-family="Helvetica,sans-Serif" font-size="10.00" fill="#ffffff">triply_interface</text>
</g>
<!-- pandas&#45;&gt;src_triply_interface -->
<g id="edge9" class="edge">
<title>pandas&#45;&gt;src_triply_interface</title><style>.edge>path:hover{stroke-width:8}</style>
<path fill="none" stroke="black" d="M509,-250.42C503.89,-233.05 503.73,-212.77 504.92,-196.47"/>
<polygon fill="#c8f906" stroke="black" points="508.41,-196.68 505.86,-186.4 501.44,-196.03 508.41,-196.68"/>
</g>
<!-- ray -->
<g id="node4" class="node">
<title>ray</title><style>.edge>path:hover{stroke-width:8}</style>
<ellipse fill="#24d069" stroke="black" cx="331" cy="-165.21" rx="27" ry="18"/>
<text text-anchor="middle" x="331" y="-162.71" font-family="Helvetica,sans-Serif" font-size="10.00" fill="#000000">ray</text>
</g>
<!-- ray&#45;&gt;src_framework -->
<g id="edge10" class="edge">
<title>ray&#45;&gt;src_framework</title><style>.edge>path:hover{stroke-width:8}</style>
<path fill="none" stroke="black" d="M324.31,-147.48C318.31,-129.47 312.96,-101.94 331,-91"/>
</g>
<!-- ray_util -->
<g id="node5" class="node">
<title>ray_util</title><style>.edge>path:hover{stroke-width:8}</style>
<ellipse fill="#24d069" stroke="black" cx="281" cy="-251.42" rx="27" ry="18"/>
<text text-anchor="middle" x="281" y="-248.92" font-family="Helvetica,sans-Serif" font-size="10.00" fill="#000000">ray.util</text>
</g>
<!-- ray_util&#45;&gt;ray -->
<g id="edge11" class="edge">
<title>ray_util&#45;&gt;ray</title><style>.edge>path:hover{stroke-width:8}</style>
<path fill="none" stroke="black" d="M290.64,-234.18C297.95,-221.87 308.12,-204.75 316.42,-190.76"/>
<polygon fill="#24d069" stroke="black" points="319.46,-192.5 321.56,-182.11 313.44,-188.92 319.46,-192.5"/>
</g>
<!-- ray_util&#45;&gt;src_framework -->
<g id="edge12" class="edge">
<title>ray_util&#45;&gt;src_framework</title><style>.edge>path:hover{stroke-width:8}</style>
<path fill="none" stroke="black" d="M297.75,-237.19C303.78,-232.48 310.66,-227.17 317,-222.43 348.67,-198.73 387.67,-205.73 386,-166.21"/>
<path fill="none" stroke="black" d="M386,-164.21C384.28,-123.55 296.19,-112.09 331,-91"/>
</g>
<!-- ray_util_multiprocessing -->
<g id="node6" class="node">
<title>ray_util_multiprocessing</title><style>.edge>path:hover{stroke-width:8}</style>
<ellipse fill="#53b67b" stroke="black" cx="386" cy="-251.42" rx="60.21" ry="28.98"/>
<text text-anchor="middle" x="386" y="-259.92" font-family="Helvetica,sans-Serif" font-size="10.00" fill="#000000">ray.</text>
<text text-anchor="middle" x="386" y="-248.92" font-family="Helvetica,sans-Serif" font-size="10.00" fill="#000000">util.</text>
<text text-anchor="middle" x="386" y="-237.92" font-family="Helvetica,sans-Serif" font-size="10.00" fill="#000000">multiprocessing</text>
</g>
<!-- ray_util_multiprocessing&#45;&gt;src_framework -->
<g id="edge13" class="edge">
<title>ray_util_multiprocessing&#45;&gt;src_framework</title><style>.edge>path:hover{stroke-width:8}</style>
<path fill="none" stroke="black" d="M386.59,-222.34C386.79,-205.96 386.79,-184.91 386,-166.21"/>
</g>
<!-- ray_util_multiprocessing_Pool -->
<g id="node7" class="node">
<title>ray_util_multiprocessing_Pool</title><style>.edge>path:hover{stroke-width:8}</style>
<ellipse fill="#49ac71" stroke="black" cx="226" cy="-353.18" rx="62.45" ry="36.54"/>
<text text-anchor="middle" x="226" y="-367.18" font-family="Helvetica,sans-Serif" font-size="10.00" fill="#000000">ray.</text>
<text text-anchor="middle" x="226" y="-356.18" font-family="Helvetica,sans-Serif" font-size="10.00" fill="#000000">util.</text>
<text text-anchor="middle" x="226" y="-345.18" font-family="Helvetica,sans-Serif" font-size="10.00" fill="#000000">multiprocessing.</text>
<text text-anchor="middle" x="226" y="-334.18" font-family="Helvetica,sans-Serif" font-size="10.00" fill="#000000">Pool</text>
</g>
<!-- ray_util_multiprocessing_Pool&#45;&gt;src_framework -->
<g id="edge14" class="edge">
<title>ray_util_multiprocessing_Pool&#45;&gt;src_framework</title><style>.edge>path:hover{stroke-width:8}</style>
<path fill="none" stroke="black" d="M227.22,-316.21C229.07,-289.59 233.68,-252.83 245,-222.43 269.36,-157.01 271.3,-127.18 331,-91"/>
</g>
<!-- settings -->
<g id="node8" class="node">
<title>settings</title><style>.edge>path:hover{stroke-width:8}</style>
<ellipse fill="#0c68f3" stroke="black" cx="832" cy="-353.18" rx="30.04" ry="18"/>
<text text-anchor="middle" x="832" y="-350.68" font-family="Helvetica,sans-Serif" font-size="10.00" fill="#ffffff">settings</text>
</g>
<!-- settings&#45;&gt;src_framework -->
<g id="edge15" class="edge">
<title>settings&#45;&gt;src_framework</title><style>.edge>path:hover{stroke-width:8}</style>
<path fill="none" stroke="black" d="M889,-250.42C893.54,-219.71 907.69,-216.04 917,-186.43 929.97,-145.17 955,-129.85 936,-91"/>
</g>
<!-- settings&#45;&gt;src_hdt_interface -->
<g id="edge16" class="edge">
<title>settings&#45;&gt;src_hdt_interface</title><style>.edge>path:hover{stroke-width:8}</style>
<path fill="none" stroke="black" d="M822.6,-336C804.31,-304.5 763.7,-234.58 740.71,-194.99"/>
<polygon fill="#0c68f3" stroke="black" points="743.59,-192.98 735.54,-186.09 737.54,-196.5 743.59,-192.98"/>
</g>
<!-- settings&#45;&gt;src_metrics -->
<g id="edge17" class="edge">
<title>settings&#45;&gt;src_metrics</title><style>.edge>path:hover{stroke-width:8}</style>
<path fill="none" stroke="black" d="M889,-250.42C891.89,-230.9 886.78,-209.18 881.13,-192.69"/>
<polygon fill="#0c68f3" stroke="black" points="884.36,-191.34 877.62,-183.17 877.8,-193.76 884.36,-191.34"/>
</g>
<!-- settings&#45;&gt;src_ordering -->
<g id="edge18" class="edge">
<title>settings&#45;&gt;src_ordering</title><style>.edge>path:hover{stroke-width:8}</style>
<path fill="none" stroke="black" d="M845.57,-337C860.81,-318.56 884.07,-285.77 889,-252.42"/>
<path fill="none" stroke="black" d="M889,-250.42C896.78,-197.81 817.9,-217.54 804,-166.21"/>
</g>
<!-- settings&#45;&gt;src_plotter -->
<g id="edge19" class="edge">
<title>settings&#45;&gt;src_plotter</title><style>.edge>path:hover{stroke-width:8}</style>
<path fill="none" stroke="black" d="M816.16,-337.45C809.11,-330.95 800.69,-323.25 793,-316.41 740.78,-269.94 678.56,-216.75 644.48,-187.79"/>
<polygon fill="#0c68f3" stroke="black" points="646.33,-184.77 636.44,-180.96 641.8,-190.1 646.33,-184.77"/>
</g>
<!-- src_expansion -->
<g id="node9" class="node">
<title>src_expansion</title><style>.edge>path:hover{stroke-width:8}</style>
<ellipse fill="#9246a4" stroke="black" cx="651" cy="-90" rx="45.15" ry="18"/>
<text text-anchor="middle" x="651" y="-87.5" font-family="Helvetica,sans-Serif" font-size="10.00" fill="#ffffff">src.expansion</text>
</g>
<!-- src_expansion&#45;&gt;src_framework -->
<g id="edge20" class="edge">
<title>src_expansion&#45;&gt;src_framework</title><style>.edge>path:hover{stroke-width:8}</style>
<path fill="none" stroke="black" d="M651,-71.7C651,-63.98 651,-54.71 651,-46.11"/>
<polygon fill="#9246a4" stroke="black" points="654.5,-46.1 651,-36.1 647.5,-46.1 654.5,-46.1"/>
</g>
<!-- src_hdt_interface&#45;&gt;src_expansion -->
<g id="edge21" class="edge">
<title>src_hdt_interface&#45;&gt;src_expansion</title><style>.edge>path:hover{stroke-width:8}</style>
<path fill="none" stroke="black" d="M705.2,-145.36C695.77,-135.91 684.27,-124.37 674.29,-114.36"/>
<polygon fill="#a731c4" stroke="black" points="676.55,-111.67 667.01,-107.06 671.6,-116.61 676.55,-111.67"/>
</g>
<!-- src_hdt_interface&#45;&gt;src_framework -->
<g id="edge22" class="edge">
<title>src_hdt_interface&#45;&gt;src_framework</title><style>.edge>path:hover{stroke-width:8}</style>
<path fill="none" stroke="black" d="M723.21,-143.99C721.7,-124.49 717.36,-94.68 705,-72 698.66,-60.38 688.95,-49.69 679.5,-41"/>
<polygon fill="#a731c4" stroke="black" points="681.53,-38.14 671.7,-34.2 676.93,-43.41 681.53,-38.14"/>
</g>
<!-- src_hdt_interface&#45;&gt;src_ordering -->
<g id="edge23" class="edge">
<title>src_hdt_interface&#45;&gt;src_ordering</title><style>.edge>path:hover{stroke-width:8}</style>
<path fill="none" stroke="black" d="M741.87,-144.98C750.56,-135.62 761.09,-124.28 770.24,-114.42"/>
<polygon fill="#a731c4" stroke="black" points="772.99,-116.61 777.23,-106.9 767.86,-111.84 772.99,-116.61"/>
</g>
<!-- src_metrics&#45;&gt;src_framework -->
<g id="edge24" class="edge">
<title>src_metrics&#45;&gt;src_framework</title><style>.edge>path:hover{stroke-width:8}</style>
<path fill="none" stroke="black" d="M895.52,-151.67C918.88,-138.33 948.11,-115.75 936,-91"/>
<path fill="none" stroke="black" d="M936,-89C915.89,-47.88 783.6,-30 706.52,-22.99"/>
<polygon fill="#9849ac" stroke="black" points="706.76,-19.5 696.49,-22.11 706.14,-26.47 706.76,-19.5"/>
</g>
<!-- src_ordering&#45;&gt;src_framework -->
<g id="edge25" class="edge">
<title>src_ordering&#45;&gt;src_framework</title><style>.edge>path:hover{stroke-width:8}</style>
<path fill="none" stroke="black" d="M766.14,-76.16C744.14,-65.24 712.3,-49.43 687.68,-37.21"/>
<polygon fill="#8b439d" stroke="black" points="689.14,-34.03 678.63,-32.71 686.03,-40.3 689.14,-34.03"/>
</g>
<!-- src_plotter&#45;&gt;src_framework -->
<g id="edge26" class="edge">
<title>src_plotter&#45;&gt;src_framework</title><style>.edge>path:hover{stroke-width:8}</style>
<path fill="none" stroke="black" d="M601.12,-149.46C585.58,-134.75 567.14,-111.46 578,-91"/>
</g>
<!-- src_ranker&#45;&gt;src_framework -->
<g id="edge27" class="edge">
<title>src_ranker&#45;&gt;src_framework</title><style>.edge>path:hover{stroke-width:8}</style>
<path fill="none" stroke="black" d="M453.68,-79.85C492.45,-67.89 560.7,-46.85 605.89,-32.91"/>
<polygon fill="#9e4cb3" stroke="black" points="607.2,-36.17 615.72,-29.88 605.13,-29.48 607.2,-36.17"/>
</g>
<!-- src_triply_interface&#45;&gt;src_expansion -->
<g id="edge28" class="edge">
<title>src_triply_interface&#45;&gt;src_expansion</title><style>.edge>path:hover{stroke-width:8}</style>
<path fill="none" stroke="black" d="M541.22,-147.6C563.23,-136.25 592.41,-121.21 615.15,-109.48"/>
<polygon fill="#a640c0" stroke="black" points="616.86,-112.54 624.15,-104.84 613.66,-106.32 616.86,-112.54"/>
</g>
<!-- src_triply_interface&#45;&gt;src_framework -->
<g id="edge29" class="edge">
<title>src_triply_interface&#45;&gt;src_framework</title><style>.edge>path:hover{stroke-width:8}</style>
<path fill="none" stroke="black" d="M531.93,-145.75C547.25,-132.18 566.61,-112.44 578,-91"/>
<path fill="none" stroke="black" d="M578,-89C588.14,-69.9 605.43,-52.97 620.63,-40.55"/>
<polygon fill="#a640c0" stroke="black" points="623.11,-43.06 628.81,-34.12 618.78,-37.55 623.11,-43.06"/>
</g>
</g>
</svg>
